<svg width="20" height="20" viewBox="0 0 20 20" fill="none" xmlns="http://www.w3.org/2000/svg">
<path d="M8.81666 0.483355L0.483323 8.81668C0.331589 8.97519 0.212647 9.1621 0.133323 9.36668C-0.0333734 9.77245 -0.0333734 10.2276 0.133323 10.6334C0.212647 10.8379 0.331589 11.0248 0.483323 11.1834L8.81666 19.5167C8.97205 19.6721 9.15654 19.7953 9.35957 19.8794C9.56261 19.9635 9.78023 20.0068 9.99999 20.0068C10.4438 20.0068 10.8695 19.8305 11.1833 19.5167C11.4972 19.2028 11.6735 18.7772 11.6735 18.3333C11.6735 17.8895 11.4972 17.4639 11.1833 17.15L5.68332 11.6667L18.3333 11.6667C18.7754 11.6667 19.1993 11.4911 19.5118 11.1785C19.8244 10.866 20 10.442 20 10C20 9.55799 19.8244 9.13407 19.5118 8.82151C19.1993 8.50895 18.7754 8.33335 18.3333 8.33335L5.68332 8.33335L11.1833 2.85002C11.3395 2.69508 11.4635 2.51075 11.5481 2.30765C11.6328 2.10455 11.6763 1.88671 11.6763 1.66669C11.6763 1.44667 11.6328 1.22882 11.5481 1.02572C11.4635 0.822626 11.3395 0.638292 11.1833 0.483355C11.0284 0.327139 10.8441 0.203146 10.641 0.118532C10.4379 0.0339184 10.22 -0.00964546 9.99999 -0.00964546C9.77997 -0.00964546 9.56213 0.0339184 9.35903 0.118532C9.15593 0.203146 8.9716 0.327139 8.81666 0.483355Z" fill="black"/>
</svg>
