<svg width="28" height="28" viewBox="0 0 28 28" fill="none" xmlns="http://www.w3.org/2000/svg">
<path fill-rule="evenodd" clip-rule="evenodd" d="M5.35734 17.8547C2.73468 11.4182 7.47018 4.375 14.42 4.375H14.7945C17.2907 4.37562 19.6845 5.36751 21.4496 7.13259C23.2147 8.89767 24.2066 11.2915 24.2072 13.7877C24.2075 15.1639 23.9366 16.5267 23.4101 17.7982C22.8836 19.0697 22.1118 20.225 21.1386 21.1981C20.1655 22.1712 19.0102 22.9431 17.7387 23.4696C16.4672 23.9961 15.1044 24.267 13.7282 24.2667H4.60484C4.42357 24.2668 4.24671 24.2107 4.09873 24.106C3.95074 24.0013 3.83892 23.8532 3.77872 23.6822C3.71852 23.5112 3.71292 23.3258 3.76268 23.1515C3.81244 22.9772 3.91511 22.8226 4.05651 22.7092L6.35601 20.8623C6.40517 20.823 6.44027 20.7687 6.45604 20.7077C6.47181 20.6467 6.46742 20.5823 6.44351 20.524L5.35734 17.8547ZM14.42 6.125C8.71151 6.125 4.82301 11.9082 6.97668 17.1943L8.06401 19.8648C8.22968 20.2719 8.25956 20.7216 8.1492 21.147C8.03885 21.5725 7.79416 21.9509 7.45151 22.2262L7.09101 22.5167H13.7282C14.8746 22.517 16.0098 22.2914 17.069 21.8528C18.1282 21.4143 19.0906 20.7713 19.9012 19.9607C20.7118 19.1501 21.3548 18.1877 21.7933 17.1285C22.2319 16.0693 22.4575 14.9341 22.4572 13.7877C22.4566 11.7556 21.649 9.80692 20.2121 8.37003C18.7753 6.93313 16.8266 6.12562 14.7945 6.125H14.42Z" fill="black"/>
</svg>
