<svg width="24" height="24" viewBox="0 0 24 24" fill="none" xmlns="http://www.w3.org/2000/svg">
<path d="M12.5 8.423V17.073L14.83 14.743L15.538 15.461L12 19L8.461 15.461L9.169 14.742L11.5 17.073V8.423H12.5ZM17.384 5C17.8447 5 18.229 5.154 18.537 5.462C18.845 5.77 18.9993 6.15467 19 6.616V9.039H18V6.616C18 6.462 17.936 6.32067 17.808 6.192C17.68 6.06333 17.539 5.99933 17.385 6H6.615C6.46167 6 6.32067 6.064 6.192 6.192C6.06333 6.32 5.99933 6.46133 6 6.616V9.039H5V6.616C5 6.15533 5.154 5.771 5.462 5.463C5.77 5.155 6.15467 5.00067 6.616 5H17.384Z" fill="white"/>
</svg>
