<svg width="20" height="20" viewBox="0 0 20 20" fill="none" xmlns="http://www.w3.org/2000/svg">
<path d="M11.1833 19.5166L19.5167 11.1833C19.6684 11.0248 19.7874 10.8379 19.8667 10.6333C20.0334 10.2275 20.0334 9.77242 19.8667 9.36665C19.7874 9.16206 19.6684 8.97516 19.5167 8.81665L11.1833 0.483317C11.0279 0.327919 10.8435 0.204652 10.6404 0.120551C10.4374 0.0364506 10.2198 -0.00683594 10 -0.00683594C9.55617 -0.00683594 9.13052 0.169477 8.81668 0.483317C8.50284 0.797156 8.32652 1.22281 8.32652 1.66665C8.32652 2.11049 8.50284 2.53614 8.81668 2.84998L14.3167 8.33332L1.66668 8.33332C1.22465 8.33332 0.800724 8.50891 0.488163 8.82147C0.175604 9.13403 9.53674e-06 9.55795 9.53674e-06 9.99998C9.53674e-06 10.442 0.175604 10.8659 0.488163 11.1785C0.800724 11.4911 1.22465 11.6666 1.66668 11.6666L14.3167 11.6666L8.81668 17.15C8.66046 17.3049 8.53647 17.4893 8.45186 17.6924C8.36724 17.8955 8.32368 18.1133 8.32368 18.3333C8.32368 18.5533 8.36724 18.7712 8.45186 18.9743C8.53647 19.1774 8.66046 19.3617 8.81668 19.5166C8.97161 19.6729 9.15595 19.7969 9.35905 19.8815C9.56215 19.9661 9.77999 20.0096 10 20.0096C10.22 20.0096 10.4379 19.9661 10.641 19.8815C10.8441 19.7969 11.0284 19.6729 11.1833 19.5166Z" fill="black"/>
</svg>
