<svg width="23" height="19" viewBox="0 0 23 19" fill="none" xmlns="http://www.w3.org/2000/svg">
<path d="M4.36528 0.718506H19.4671C20.3914 0.718506 21.2778 1.08568 21.9314 1.73925C22.5849 2.39282 22.9521 3.27925 22.9521 4.20354V14.6586C22.9521 15.5829 22.5849 16.4693 21.9314 17.1229C21.2778 17.7765 20.3914 18.1437 19.4671 18.1437H4.36528C3.44099 18.1437 2.55456 17.7765 1.90099 17.1229C1.24742 16.4693 0.880249 15.5829 0.880249 14.6586V4.20354C0.880249 3.27925 1.24742 2.39282 1.90099 1.73925C2.55456 1.08568 3.44099 0.718506 4.36528 0.718506ZM4.36528 1.88018C3.78444 1.88018 3.2733 2.07767 2.87833 2.42617L11.9162 8.2694L20.954 2.42617C20.5591 2.07767 20.0479 1.88018 19.4671 1.88018H4.36528ZM11.9162 9.67503L2.19294 3.36713C2.10001 3.6227 2.04193 3.91312 2.04193 4.20354V14.6586C2.04193 15.2748 2.28671 15.8658 2.72242 16.3015C3.15813 16.7372 3.74909 16.982 4.36528 16.982H19.4671C20.0833 16.982 20.6742 16.7372 21.1099 16.3015C21.5456 15.8658 21.7904 15.2748 21.7904 14.6586V4.20354C21.7904 3.91312 21.7323 3.6227 21.6394 3.36713L11.9162 9.67503Z" fill="black"/>
</svg>
