<svg width="29" height="29" viewBox="0 0 29 29" fill="none" xmlns="http://www.w3.org/2000/svg">
<path d="M14.8503 20.497C14.2341 20.497 13.6432 20.2522 13.2074 19.8165C12.7717 19.3808 12.5269 18.7898 12.5269 18.1736C12.5269 16.8842 13.5608 15.8503 14.8503 15.8503C15.4665 15.8503 16.0574 16.0951 16.4932 16.5308C16.9289 16.9665 17.1737 17.5574 17.1737 18.1736C17.1737 18.7898 16.9289 19.3808 16.4932 19.8165C16.0574 20.2522 15.4665 20.497 14.8503 20.497ZM21.8204 23.982V12.3652H7.88024V23.982H21.8204ZM21.8204 10.0419C22.4365 10.0419 23.0275 10.2867 23.4632 10.7224C23.8989 11.1581 24.1437 11.7491 24.1437 12.3652V23.982C24.1437 24.5982 23.8989 25.1892 23.4632 25.6249C23.0275 26.0606 22.4365 26.3054 21.8204 26.3054H7.88024C7.26405 26.3054 6.67309 26.0606 6.23738 25.6249C5.80167 25.1892 5.55688 24.5982 5.55688 23.982V12.3652C5.55688 11.0758 6.59078 10.0419 7.88024 10.0419H9.04191V7.71854C9.04191 6.17806 9.65387 4.70068 10.7432 3.61139C11.8324 2.52211 13.3098 1.91016 14.8503 1.91016C15.6131 1.91016 16.3684 2.06039 17.0731 2.35229C17.7778 2.64419 18.4181 3.07203 18.9574 3.61139C19.4968 4.15075 19.9246 4.79106 20.2165 5.49577C20.5084 6.20047 20.6587 6.95577 20.6587 7.71854V10.0419H21.8204ZM14.8503 4.23351C13.926 4.23351 13.0396 4.60068 12.386 5.25425C11.7324 5.90782 11.3653 6.79425 11.3653 7.71854V10.0419H18.3353V7.71854C18.3353 6.79425 17.9682 5.90782 17.3146 5.25425C16.661 4.60068 15.7746 4.23351 14.8503 4.23351Z" fill="black"/>
</svg>
