<svg width="25" height="25" viewBox="0 0 25 25" fill="none" xmlns="http://www.w3.org/2000/svg">
<path d="M13.3649 12.3959L4.36924 12.1178M14.21 17.4244L14.1482 19.4235C14.14 19.6885 14.2374 19.946 14.4191 20.1393C14.6008 20.3325 14.8517 20.4457 15.1168 20.4539L19.1149 20.5775C19.38 20.5856 19.6375 20.4882 19.8307 20.3065C20.024 20.1249 20.1371 19.8739 20.1453 19.6088L20.5779 5.61551C20.5861 5.35042 20.4886 5.09293 20.307 4.89969C20.1253 4.70645 19.8743 4.59329 19.6092 4.58509L15.6112 4.46151C15.3461 4.45331 15.0886 4.55076 14.8953 4.73241C14.7021 4.91407 14.5889 5.16504 14.5807 5.43013L14.5189 7.42918M9.49044 8.27422L14.3645 12.4268L9.24327 16.2704M17.5175 7.52187L17.5178 7.51187" stroke="white" stroke-width="2" stroke-linecap="round" stroke-linejoin="round"/>
</svg>
